<?xml version="1.0" encoding="utf-8"?>
<!-- Generator: Adobe Illustrator 21.0.0, SVG Export Plug-In . SVG Version: 6.00 Build 0)  -->
<svg version="1.1" id="图层_1" xmlns="http://www.w3.org/2000/svg" xmlns:xlink="http://www.w3.org/1999/xlink" x="0px" y="0px"
	 viewBox="0 0 30 30" style="enable-background:new 0 0 30 30;" xml:space="preserve">
<style type="text/css">
	.st0{fill:#C6C6CC;}
</style>
<path class="st0" d="M11,17.7H7.1v-3.9H11V17.7z M16.9,13.8H13v3.9h3.9V13.8z M22.9,13.8H19v3.9h3.9V13.8z M11,19.5H7.1v3.9H11V19.5
	L11,19.5z M16.9,19.5H13v3.9h3.9V19.5z M22.9,19.5H19v3.9h3.9V19.5z M24.3,5.9c0,0.7-0.5,1.2-1.2,1.2s-1.2-0.5-1.2-1.2v-3
	c0-0.7,0.5-1.2,1.2-1.2s1.2,0.5,1.2,1.2V5.9z M8,2.9c0-0.7-0.5-1.2-1.2-1.2S5.6,2.2,5.6,2.9v3c0,0.7,0.5,1.2,1.2,1.2
	C7.4,7.1,8,6.6,8,5.9V2.9L8,2.9z M25.8,4.6v1.2c0,1.5-1.2,2.7-2.7,2.7s-2.7-1.2-2.7-2.7V4.6h-11v1.2c0,1.5-1.2,2.7-2.7,2.7
	S4,7.3,4,5.8V4.6H1.2v23.9h27.4V4.6H25.8L25.8,4.6z M25.9,25.8h-22V11H26L25.9,25.8L25.9,25.8z"/>
</svg>
