<?xml version="1.0" encoding="utf-8"?>
<!-- Generator: Adobe Illustrator 21.0.0, SVG Export Plug-In . SVG Version: 6.00 Build 0)  -->
<svg version="1.1" id="图层_1" xmlns="http://www.w3.org/2000/svg" xmlns:xlink="http://www.w3.org/1999/xlink" x="0px" y="0px"
	 viewBox="0 0 48 48" style="enable-background:new 0 0 48 48;" xml:space="preserve">
<style type="text/css">
	.st0{fill:#4ac8f8;}
	.st1{fill:#fff;}
</style>
<path class="st0" d="M24,0C10.8,0,0,10.8,0,24s10.8,24,24,24s24-10.8,24-24S37.2,0,24,0z M33.6,36.6c-3.5,0.6-9.1,0-15-5
	c-6-5-7.7-8.3-8.4-11.3c-1.5-6.2,2.1-9,4.7-9c0.8,0,1.5,0.3,1.9,0.8c1.6,2.3,2.5,4.9,2.5,6.1c0,1.3-2.2,3.1-2.2,3.1s0.4,2.9,4.6,6.1
	c4.2,3.2,6,2.8,6,2.8s2-3.7,3.6-3.2c1.6,0.5,4,1.6,6.2,2.8C39.6,30.8,37.1,36,33.6,36.6L33.6,36.6z"/>
<path class="st1" d="M24,5C13.5,5,5,13.5,5,24s8.5,19,19,19s19-8.5,19-19S34.5,5,24,5z M31.6,33.9c-2.8,0.5-7.2,0-11.9-4
	C15,26,13.6,23.4,13,21c-1.2-4.9,1.7-7.1,3.7-7.1c0.6,0,1.2,0.2,1.5,0.7c1.3,1.8,2,3.9,2,4.8c0,1-1.7,2.4-1.7,2.4s0.3,2.3,3.6,4.8
	c3.3,2.5,4.8,2.2,4.8,2.2s1.6-2.9,2.9-2.6c1.2,0.4,3.2,1.3,4.9,2.2C36.4,29.4,34.4,33.5,31.6,33.9L31.6,33.9z"/>
</svg>
