<?xml version="1.0" encoding="utf-8"?>
<!-- Generator: Adobe Illustrator 21.0.0, SVG Export Plug-In . SVG Version: 6.00 Build 0)  -->
<svg version="1.1" id="图层_1" xmlns="http://www.w3.org/2000/svg" xmlns:xlink="http://www.w3.org/1999/xlink" x="0px" y="0px"
	 viewBox="0 0 34 34" style="enable-background:new 0 0 34 34;" xml:space="preserve">
<style type="text/css">
	.st0{fill:#FBB220;}
</style>
<path class="st0" d="M25.9,14.8l-9.8,9.5c0,0,0,0,0,0l-0.1,0.1l0,0c-0.4,0.3-0.9,0.5-1.4,0.5c-0.5,0-1.1-0.2-1.5-0.6l-5.3-5.1
	c-0.8-0.8-0.8-2.1,0-2.9c0.8-0.8,2.2-0.8,3,0l3.8,3.7l8.3-8c0.8-0.8,2.2-0.8,3,0C26.8,12.7,26.8,14,25.9,14.8z M16.8,34
	c9.4,0,17-7.6,17-17s-7.6-17-17-17s-17,7.6-17,17S7.4,34,16.8,34z"/>
</svg>
