<?xml version="1.0" encoding="utf-8"?>
<!-- Generator: Adobe Illustrator 21.0.0, SVG Export Plug-In . SVG Version: 6.00 Build 0)  -->
<svg version="1.1" id="图层_1" xmlns="http://www.w3.org/2000/svg" xmlns:xlink="http://www.w3.org/1999/xlink" x="0px" y="0px"
	 viewBox="0 0 40 40" style="enable-background:new 0 0 40 40;" xml:space="preserve">
<style type="text/css">
	.st0{fill:#08C8CD;}
</style>
<path class="st0" d="M30.5,17.4L19,28.6l0,0l-0.1,0.1l0,0c-0.5,0.4-1.1,0.6-1.6,0.6s-1.3-0.2-1.8-0.7l-6.2-6c-0.9-0.9-0.9-2.5,0-3.4
	c0.9-0.9,2.6-0.9,3.5,0l4.5,4.4l9.8-9.4c0.9-0.9,2.6-0.9,3.5,0C31.6,14.9,31.6,16.5,30.5,17.4z M19.8,40c11.1,0,20-8.9,20-20
	s-8.9-20-20-20s-20,8.9-20,20S8.7,40,19.8,40z"/>
</svg>
