<?xml version="1.0" encoding="utf-8"?>
<!-- Generator: Adobe Illustrator 21.0.0, SVG Export Plug-In . SVG Version: 6.00 Build 0)  -->
<svg version="1.1" id="图层_1" xmlns="http://www.w3.org/2000/svg" xmlns:xlink="http://www.w3.org/1999/xlink" x="0px" y="0px"
	 viewBox="0 0 30 30" style="enable-background:new 0 0 30 30;" xml:space="preserve">
<style type="text/css">
	.st0{fill:#939399;}
</style>
<path class="st0" d="M11,17.7H7.1v-3.9H11V17.7z M16.9,13.8H13v3.9h3.9C16.9,17.7,16.9,13.8,16.9,13.8z M22.9,13.8h-3.9v3.9h3.9
	C22.9,17.7,22.9,13.8,22.9,13.8z M11,19.5H7.1v3.9H11L11,19.5L11,19.5z M16.9,19.5H13v3.9h3.9V19.5z M22.9,19.5h-3.9v3.9h3.9V19.5z
	 M24.3,5.9c0,0.7-0.5,1.2-1.2,1.2s-1.2-0.5-1.2-1.2v-3c0-0.7,0.5-1.2,1.2-1.2s1.2,0.5,1.2,1.2V5.9z M8,2.9c0-0.7-0.5-1.2-1.2-1.2
	c-0.7,0-1.2,0.5-1.2,1.2v3c0,0.7,0.5,1.2,1.2,1.2C7.4,7.1,8,6.6,8,5.9V2.9L8,2.9z M25.8,4.6v1.2c0,1.5-1.2,2.7-2.7,2.7
	c-1.5,0-2.7-1.2-2.7-2.7V4.6h-11v1.2c0,1.5-1.2,2.7-2.7,2.7c-1.5,0-2.7-1.2-2.7-2.7V4.6H1.2v23.9h27.4V4.6L25.8,4.6L25.8,4.6z
	 M25.9,25.8H3.9V11h22.1L25.9,25.8L25.9,25.8z"/>
</svg>
