<?xml version="1.0" encoding="utf-8"?>
<!-- Generator: Adobe Illustrator 21.0.0, SVG Export Plug-In . SVG Version: 6.00 Build 0)  -->
<svg version="1.1" id="图层_1" xmlns="http://www.w3.org/2000/svg" xmlns:xlink="http://www.w3.org/1999/xlink" x="0px" y="0px"
	 viewBox="0 0 50 48.3" style="enable-background:new 0 0 50 48.3;" xml:space="preserve">
<style type="text/css">
	.st0{fill:#939399;}
</style>
<rect x="0" y="45.3" class="st0" width="50" height="3"/>
<g>
	<path class="st0" d="M43,3v36h-6V3H43 M44,0h-8c-1.1,0-2,0.9-2,2v38c0,1.1,0.9,2,2,2h8c1.1,0,2-0.9,2-2V2C46,0.9,45.1,0,44,0L44,0z
		"/>
</g>
<g>
	<path class="st0" d="M13,15.1V39H7V15.1H13 M14,12.1H6c-1.1,0-2,0.9-2,2V40c0,1.1,0.9,2,2,2h8c1.1,0,2-0.9,2-2V14.1
		C16,13,15.1,12.1,14,12.1L14,12.1z"/>
</g>
<g>
	<path class="st0" d="M28,24v15h-6V24H28 M29,21h-8c-1.1,0-2,0.9-2,2v17c0,1.1,0.9,2,2,2h8c1.1,0,2-0.9,2-2V23
		C31,21.9,30.1,21,29,21L29,21z"/>
</g>
</svg>
