<?xml version="1.0" encoding="utf-8"?>
<!-- Generator: Adobe Illustrator 21.0.0, SVG Export Plug-In . SVG Version: 6.00 Build 0)  -->
<svg version="1.1" id="图层_1" xmlns="http://www.w3.org/2000/svg" xmlns:xlink="http://www.w3.org/1999/xlink" x="0px" y="0px"
	 viewBox="0 0 50 48.3" style="enable-background:new 0 0 50 48.3;" xml:space="preserve">
<style type="text/css">
	.st0{fill:#08C8CD;}
</style>
<g>
	<polygon class="st0" points="50,45.3 0,45.3 0,48.3 50,48.3 50,45.3 	"/>
</g>
<g>
	<path class="st0" d="M44,42h-8c-1.1,0-2-0.9-2-2V2c0-1.1,0.9-2,2-2h8c1.1,0,2,0.9,2,2v38C46,41.1,45.1,42,44,42z"/>
</g>
<g>
	<path class="st0" d="M14,42H6c-1.1,0-2-0.9-2-2V20.3c0-1.1,0.9-2,2-2h8c1.1,0,2,0.9,2,2V40C16,41.1,15.1,42,14,42z"/>
</g>
<g>
	<path class="st0" d="M29,42h-8c-1.1,0-2-0.9-2-2V12.2c0-1.1,0.9-2,2-2h8c1.1,0,2,0.9,2,2V40C31,41.1,30.1,42,29,42z"/>
</g>
</svg>
