<?xml version="1.0" encoding="utf-8"?>
<!-- Generator: Adobe Illustrator 21.0.0, SVG Export Plug-In . SVG Version: 6.00 Build 0)  -->
<svg version="1.1" id="图层_1" xmlns="http://www.w3.org/2000/svg" xmlns:xlink="http://www.w3.org/1999/xlink" x="0px" y="0px"
	 viewBox="0 0 40 40" style="enable-background:new 0 0 40 40;" xml:space="preserve">
<style type="text/css">
	.st0{fill:#C4C4CC;}
</style>
<path class="st0" d="M7.2,40l23.3,0c4,0,6.5-1.6,6.5-5.7V3.9C37,1.7,35.1,0,32.8,0l-4.6,0c-0.3,0-21,0-21,0C4.9,0,3,1.7,3,3.9V18
	l0,18C3,38.2,4.9,40,7.2,40z M10.6,14.7c0-0.3,0.2-0.5,0.5-0.5h17.8c0.3,0,0.5,0.2,0.5,0.5V17c0,0.3-0.2,0.5-0.5,0.5H11.1
	c-0.3,0-0.5-0.2-0.5-0.5C10.6,17,10.6,14.7,10.6,14.7z M10.6,23.8c0-0.3,0.2-0.5,0.5-0.5h17.8c0.3,0,0.5,0.2,0.5,0.5v2.3
	c0,0.3-0.2,0.5-0.5,0.5H11.1c-0.3,0-0.5-0.2-0.5-0.5C10.6,26.1,10.6,23.8,10.6,23.8z"/>
</svg>
