<?xml version="1.0" encoding="utf-8"?>
<!-- Generator: Adobe Illustrator 21.0.0, SVG Export Plug-In . SVG Version: 6.00 Build 0)  -->
<svg version="1.1" id="图层_1" xmlns="http://www.w3.org/2000/svg" xmlns:xlink="http://www.w3.org/1999/xlink" x="0px" y="0px"
	 viewBox="0 0 30 30" style="enable-background:new 0 0 30 30;" xml:space="preserve">
<style type="text/css">
	.st0{fill:#08C8CD;}
</style>
<path class="st0" d="M14.4,23.7c0.3,0.4,1,0.4,1.3,0l11.1-11.4c0.5-0.5,0.1-1.2-0.7-1.2H19V0.7c0-0.4-0.3-0.7-0.7-0.7h-6.7
	c-0.4,0-0.7,0.3-0.7,0.7l0,10.4H3.9c-0.7,0-1.1,0.7-0.7,1.2L14.4,23.7z"/>
<path class="st0" d="M26.3,27.1H3.9c-0.4,0-0.8,0.3-0.8,0.7v1.7c0,0.4,0.4,0.7,0.8,0.7h22.4c0.4,0,0.8-0.3,0.8-0.7v-1.7
	C27.1,27.4,26.7,27.1,26.3,27.1z"/>
</svg>
