<?xml version="1.0" encoding="utf-8"?>
<!-- Generator: Adobe Illustrator 21.0.0, SVG Export Plug-In . SVG Version: 6.00 Build 0)  -->
<svg version="1.1" id="图层_1" xmlns="http://www.w3.org/2000/svg" xmlns:xlink="http://www.w3.org/1999/xlink" x="0px" y="0px"
	 viewBox="0 0 28 28" style="enable-background:new 0 0 28 28;" xml:space="preserve">
<style type="text/css">
	.st0{fill:#13b7f6;}
</style>
<path class="st0" d="M14,0C6.3,0,0,6.3,0,14s6.3,14,14,14s14-6.3,14-14S21.7,0,14,0z M13.9,23.8c-1.1,0-2.1-0.9-2.1-2
	c0-1.1,0.9-2,2.1-2c1.1,0,2.1,0.9,2.1,2C16,22.9,15.1,23.8,13.9,23.8z M19.5,12.3c-0.4,0.6-1.3,1.5-2.6,2.6c-0.7,0.6-1.1,1-1.3,1.4
	c-0.2,0.3-0.2,1-0.2,1.9h-2.9l0-0.8c0-1,0.2-1.7,0.5-2.4s0.9-1.3,1.9-2.1c0.9-0.8,1.5-1.3,1.7-1.5c0.3-0.4,0.4-0.8,0.4-1.2
	c0-0.6-0.3-1.2-0.8-1.6c-0.5-0.4-1.2-0.7-2-0.7c-0.8,0-1.5,0.2-2.1,0.7c-0.6,0.5-1,1.5-1.1,2.1c-0.1,0.6-3,0.9-3-0.4
	c0-1.2,0.7-2.5,1.8-3.5c1.1-1,2.5-1.4,4.3-1.4c1.9,0,3.3,0.5,4.4,1.5c1.1,1,1.6,2.1,1.6,3.4C20.1,11,19.9,11.7,19.5,12.3L19.5,12.3z
	"/>
</svg>
