<?xml version="1.0" encoding="utf-8"?>
<!-- Generator: Adobe Illustrator 21.0.0, SVG Export Plug-In . SVG Version: 6.00 Build 0)  -->
<svg version="1.1" id="图层_1" xmlns="http://www.w3.org/2000/svg" xmlns:xlink="http://www.w3.org/1999/xlink" x="0px" y="0px"
	 viewBox="0 0 40 40" style="enable-background:new 0 0 40 40;" xml:space="preserve">
<style type="text/css">
	.st0{fill:#C4C4CC;}
</style>
<path class="st0" d="M0.5,22.1c-0.7-1.2-0.7-3.1,0-4.3C0.5,17.9,7,5,20,5s19.5,12.9,19.5,12.9c0.7,1.2,0.7,3.1,0,4.3
	C39.5,22.1,33,35,20,35S0.5,22.1,0.5,22.1z M20,30c5.7,0,10.4-4.5,10.4-10S25.7,10,20,10S9.6,14.5,9.6,20S14.3,30,20,30z"/>
<path class="st0" d="M12.5,20c0,4.1,3.4,7.5,7.5,7.5s7.5-3.4,7.5-7.5s-3.4-7.5-7.5-7.5S12.5,15.9,12.5,20z"/>
</svg>
