<?xml version="1.0" encoding="utf-8"?>
<!-- Generator: Adobe Illustrator 21.0.0, SVG Export Plug-In . SVG Version: 6.00 Build 0)  -->
<svg version="1.1" id="图层_1" xmlns="http://www.w3.org/2000/svg" xmlns:xlink="http://www.w3.org/1999/xlink" x="0px" y="0px"
	 viewBox="0 0 30 30" style="enable-background:new 0 0 30 30;" xml:space="preserve">
<style type="text/css">
	.st0{fill:#FB5849;stroke:#FFFFFF;stroke-miterlimit:10;}
	.st1{fill:#FB5849;}
</style>
<path class="st0" d="M7.6,13.4l1.9-1.5l4.4,3.2c0,0,5-5.5,11.1-9.1l0.7,0.9c0,0-6.9,5.9-10.5,13.6C15.1,20.4,7.6,13.4,7.6,13.4z"/>
<g>
	<path class="st1" d="M27,4.5c0.6,0,1,0.5,1,1.2v14.1c0,0.5-0.2,0.9-0.6,1.1L15,27.5L2.6,20.9C2.3,20.7,2,20.3,2,19.8V5.7
		C2,5,2.5,4.5,3,4.5H27 M27,2.5H3c-1.7,0-3,1.4-3,3.2v14.1c0,1.2,0.6,2.3,1.7,2.9l12.5,6.6c0.3,0.1,0.6,0.2,0.8,0.2
		c0.3,0,0.6-0.1,0.8-0.2l12.5-6.6c1-0.5,1.7-1.7,1.7-2.9V5.7C30,3.9,28.7,2.5,27,2.5L27,2.5z"/>
</g>
</svg>
