<?xml version="1.0" encoding="utf-8"?>
<!-- Generator: Adobe Illustrator 21.0.0, SVG Export Plug-In . SVG Version: 6.00 Build 0)  -->
<svg version="1.1" id="图层_1" xmlns="http://www.w3.org/2000/svg" xmlns:xlink="http://www.w3.org/1999/xlink" x="0px" y="0px"
	 viewBox="0 0 30 30" style="enable-background:new 0 0 30 30;" xml:space="preserve">
<style type="text/css">
	.st0{fill:#FBB220;}
</style>
<path class="st0" d="M14.9,4.7c-3.6,0-6.6,2.9-6.6,6.6s2.9,6.6,6.6,6.6c3.6,0,6.6-2.9,6.6-6.6S18.6,4.7,14.9,4.7z M14.9,16
	c-2.6,0-4.7-2.1-4.7-4.7c0-2.6,2.1-4.7,4.7-4.7c2.6,0,4.7,2.1,4.7,4.7C19.6,13.9,17.5,16,14.9,16z M25.3,16.4c0.8-1.5,1.2-3.2,1.2-5
	c0-6.3-5.2-11.3-11.5-11.3C8.6,0.1,3.4,5.1,3.4,11.4c0,1.8,0.4,3.5,1.2,5l-4.7,8c0,0,3,0.6,6,1.2c2,2.2,4,4.5,4,4.5l4.3-7.3
	c0.2,0,0.5,0,0.7,0c0.2,0,0.5,0,0.7,0l4.3,7.3c0,0,2-2.2,4-4.5c3-0.6,6-1.2,6-1.2L25.3,16.4z M9.7,26.6c0,0-1.4-1.4-2.8-2.7
	C5,23.4,3,22.9,3,22.9l2.7-4.6c1.6,2,3.8,3.5,6.4,4.2L9.7,26.6z M14.9,20.7c-5.2,0-9.4-4.2-9.4-9.4c0-5.2,4.2-9.4,9.4-9.4
	c5.2,0,9.4,4.2,9.4,9.4C24.3,16.5,20.1,20.7,14.9,20.7z M23,24c-1.4,1.3-2.8,2.7-2.8,2.7l-2.5-4.2c2.6-0.6,4.8-2.1,6.4-4.2l2.7,4.6
	C26.8,22.9,24.9,23.4,23,24z"/>
</svg>
