<?xml version="1.0" encoding="utf-8"?>
<!-- Generator: Adobe Illustrator 21.0.0, SVG Export Plug-In . SVG Version: 6.00 Build 0)  -->
<svg version="1.1" id="图层_1" xmlns="http://www.w3.org/2000/svg" xmlns:xlink="http://www.w3.org/1999/xlink" x="0px" y="0px"
	 viewBox="0 0 50 50" style="enable-background:new 0 0 50 50;" xml:space="preserve">
<style type="text/css">
	.st0{fill:#13B7F6;}
	.st1{fill:#FFFFFF;}
	.st2{fill:#FCFCFC;}
</style>
<path class="st0" d="M49.4,19.7L28.2,1.2c-1.8-1.6-4.7-1.6-6.5,0L0.6,19.7c-0.7,0.6-0.8,1.8-0.3,2.6c0.6,0.8,1.6,0.9,2.3,0.3L3.3,22
	v22.4c0,3.2,3,5.5,5.7,5.5h33.3c2.6,0,4.3-2.2,4.3-5.5V22.1l0.6,0.5c0.3,0.3,0.7,0.4,1,0.4c0.5,0,1-0.2,1.3-0.7
	C50.2,21.5,50.1,20.4,49.4,19.7L49.4,19.7 M23.3,46.3V36c0-0.5,0.8-0.8,1.7-0.8c0.8,0,1.7,0.3,1.7,0.8v10.3H23.3L23.3,46.3"/>
<path class="st1" d="M25.4,49.9h-0.8c-2.5,0-4.6-2.2-4.6-4.8V29.8c0-2.6,2.1-4.8,4.6-4.8h0.8c2.5,0,4.6,2.2,4.6,4.8v15.3
	C30,47.8,27.9,49.9,25.4,49.9z"/>
<rect x="20" y="44.6" class="st2" width="10" height="5.4"/>
</svg>
