<?xml version="1.0" encoding="utf-8"?>
<!-- Generator: Adobe Illustrator 21.0.0, SVG Export Plug-In . SVG Version: 6.00 Build 0)  -->
<svg version="1.1" id="图层_1" xmlns="http://www.w3.org/2000/svg" xmlns:xlink="http://www.w3.org/1999/xlink" x="0px" y="0px"
	 viewBox="0 0 50 50" style="enable-background:new 0 0 50 50;" xml:space="preserve">
<style type="text/css">
	.st0{fill:#959599;}
</style>
<path class="st0" d="M49.4,19.7L28.2,1.2c-1.8-1.6-4.7-1.6-6.5,0L0.6,19.7c-0.7,0.6-0.8,1.8-0.3,2.6c0.6,0.8,1.6,0.9,2.3,0.3L3.3,22
	v22.4c0,3.2,3,5.5,5.7,5.5h33.3c2.6,0,4.3-2.2,4.3-5.5V22.1l0.6,0.5c0.3,0.3,0.7,0.4,1,0.4c0.5,0,1-0.2,1.3-0.7
	C50.2,21.5,50.1,20.4,49.4,19.7L49.4,19.7 M23.3,46.3V36c0-0.5,0.8-0.8,1.7-0.8c0.8,0,1.7,0.3,1.7,0.8v10.3H23.3L23.3,46.3
	 M43.3,44.5c0,1.2-0.3,1.8-1,1.8l-12.3,0c0,0,0-0.1,0-0.1L30,36c0-2.2-1.6-4.5-5-4.5c-3.4,0-5,2.3-5,4.5v10.2c0,0,0,0.1,0,0.1H9
	c-1,0-2.3-1-2.3-1.8V19.1l17.1-15c0.6-0.5,1.7-0.5,2.3,0l17.2,15.1L43.3,44.5L43.3,44.5"/>
<path class="st0" d="M25.4,48.9h-0.8c-2.5,0-4.6-2.1-4.6-4.6V29.6c0-2.5,2.1-4.6,4.6-4.6h0.8c2.5,0,4.6,2.1,4.6,4.6v14.7
	C30,46.9,27.9,48.9,25.4,48.9z"/>
</svg>
