<?xml version="1.0" encoding="utf-8"?>
<!-- Generator: Adobe Illustrator 21.0.0, SVG Export Plug-In . SVG Version: 6.00 Build 0)  -->
<svg version="1.1" id="图层_1" xmlns="http://www.w3.org/2000/svg" xmlns:xlink="http://www.w3.org/1999/xlink" x="0px" y="0px"
	 viewBox="0 0 40 40" style="enable-background:new 0 0 40 40;" xml:space="preserve">
<style type="text/css">
	.st0{fill:#C4C4CC;}
</style>
<path class="st0" d="M25.9,16.5L25.9,16.5c0.7,0,1.2,0.5,1.2,1.1c0,0.6-0.5,1.1-1.2,1.1h-4.3v2.5c0,0.8-0.7,1.5-1.6,1.5
	c-0.9,0-1.6-0.7-1.6-1.5v-2.5H14c-0.7,0-1.2-0.5-1.2-1.1c0-0.6,0.5-1.1,1.2-1.1h4.3v-1.6H14c-0.7,0-1.2-0.5-1.2-1.1s0.5-1.1,1.2-1.1
	h4.3v-1.3L14,7.2c-0.5-0.5-0.5-1.4,0-1.9c0.6-0.5,1.4-0.5,2,0l4,3.8l4-3.8c0.5-0.5,1.4-0.5,2,0c0.6,0.5,0.6,1.3,0,1.9l-4.4,4.2v1.3
	h4.3c0.7,0,1.2,0.5,1.2,1.1s-0.5,1.1-1.2,1.1h-4.3v1.6L25.9,16.5L25.9,16.5z"/>
<path class="st0" d="M35.3,0L38,22.1l-3,0.7L32.6,3.3H7.3L4.9,22.8l-3-0.4L4.6,0C4.6,0,35.3,0,35.3,0z M39,25H0.9
	c-0.7,0-1.1,0.3-0.9,1l4.3,12.7C4.6,39.4,5.2,39.9,6,40h28c0.8-0.1,1.4-0.7,1.7-1.4l4.3-12.5c0.2-0.4,0-0.9-0.4-1
	C39.4,25,39.2,25,39,25 M25.9,30H15.7v-1.7h10.2V30z"/>
</svg>
