<?xml version="1.0" encoding="utf-8"?>
<!-- Generator: Adobe Illustrator 21.0.0, SVG Export Plug-In . SVG Version: 6.00 Build 0)  -->
<svg version="1.1" id="图层_1" xmlns="http://www.w3.org/2000/svg" xmlns:xlink="http://www.w3.org/1999/xlink" x="0px" y="0px"
	 viewBox="0 0 50 50" style="enable-background:new 0 0 50 50;" xml:space="preserve">
<style type="text/css">
	.st0{fill:#13B7F6;}
	.st1{fill:#FFFFFF;}
</style>
<g>
	<path class="st0" d="M24.7,0C12.6,0,2,9,0.2,21.6c-1.7,13.8,8,26.4,21.6,28.1c1.1,0.1,2.1,0.2,3.2,0.2c2.7,0,5.3-0.4,7.9-1.2
		l9.5,1.4c0.3,0,0.7-0.1,1-0.3s0.6-0.6,0.6-1l1.1-8.7c2.5-3.4,4.1-7.4,4.7-11.6c1.6-14-8-26.5-21.6-28.2C27.1,0.1,25.9,0,24.7,0
		L24.7,0z"/>
</g>
<g>
	<path class="st1" d="M36.3,27.4c-1.1,0-1.9-0.8-1.9-1.9s0.8-1.9,1.9-1.9s1.9,0.8,1.9,1.9S37.4,27.4,36.3,27.4z M25,27.4
		c-1.1,0-1.9-0.8-1.9-1.9s0.8-1.9,1.9-1.9s1.9,0.8,1.9,1.9S26.1,27.4,25,27.4z M13.6,27.4c-1.1,0-1.9-0.8-1.9-1.9s0.8-1.9,1.9-1.9
		s1.9,0.8,1.9,1.9S14.7,27.4,13.6,27.4z"/>
	<path class="st1" d="M36.3,25.1c0.3,0,0.4,0.1,0.4,0.4s-0.1,0.4-0.4,0.4c-0.3,0-0.4-0.1-0.4-0.4S36.1,25.1,36.3,25.1 M25,25.1
		c0.3,0,0.4,0.1,0.4,0.4s-0.1,0.4-0.4,0.4s-0.4-0.1-0.4-0.4S24.7,25.1,25,25.1 M13.6,25.1c0.3,0,0.4,0.1,0.4,0.4s-0.1,0.4-0.4,0.4
		c-0.3,0-0.4-0.1-0.4-0.4S13.3,25.1,13.6,25.1 M36.3,22.1c-1.9,0-3.4,1.5-3.4,3.4s1.5,3.4,3.4,3.4s3.4-1.5,3.4-3.4
		S38.3,22.1,36.3,22.1L36.3,22.1z M25,22.1c-1.9,0-3.4,1.5-3.4,3.4s1.5,3.4,3.4,3.4s3.4-1.5,3.4-3.4S26.9,22.1,25,22.1L25,22.1z
		 M13.6,22.1c-1.9,0-3.4,1.5-3.4,3.4s1.5,3.4,3.4,3.4s3.4-1.5,3.4-3.4S15.6,22.1,13.6,22.1L13.6,22.1z"/>
</g>
</svg>
