<?xml version="1.0" encoding="utf-8"?>
<!-- Generator: Adobe Illustrator 21.0.0, SVG Export Plug-In . SVG Version: 6.00 Build 0)  -->
<svg version="1.1" id="图层_1" xmlns="http://www.w3.org/2000/svg" xmlns:xlink="http://www.w3.org/1999/xlink" x="0px" y="0px"
	 viewBox="0 0 50 50" style="enable-background:new 0 0 50 50;" xml:space="preserve">
<style type="text/css">
	.st0{fill:#959599;}
</style>
<g>
	<path class="st0" d="M24.7,3c1,0,2.1,0.1,3.1,0.2l0,0l0,0c11.9,1.5,20.4,12.6,19,24.7c-0.5,3.8-1.9,7.3-4.1,10.2l-0.5,0.6l-0.1,0.8
		l-0.9,7.3l-7.9-1.2l-0.7-0.1L32,45.8c-2.3,0.7-4.6,1.1-7,1.1c-0.9,0-1.9-0.1-2.9-0.2c-5.7-0.7-10.8-3.6-14.4-8.1
		C4.1,33.8,2.4,27.9,3.2,22C4.7,11.2,13.9,3,24.7,3 M24.7,0C12.6,0,2,9,0.2,21.6c-1.7,13.8,8,26.4,21.6,28.1
		c1.1,0.1,2.1,0.2,3.2,0.2c2.7,0,5.3-0.4,7.9-1.2l9.5,1.4c0.3,0,0.7-0.1,1-0.3c0.3-0.2,0.6-0.6,0.6-1l1.1-8.7
		c2.5-3.4,4.1-7.4,4.7-11.6C51.4,14.5,41.8,2,28.2,0.3C27.1,0.1,25.9,0,24.7,0L24.7,0z"/>
</g>
<g>
	<g>
		<path class="st0" d="M13.6,22.1c-1.9,0-3.4,1.5-3.4,3.4s1.5,3.4,3.4,3.4s3.4-1.5,3.4-3.4S15.6,22.1,13.6,22.1z M25,22.1
			c-1.9,0-3.4,1.5-3.4,3.4s1.5,3.4,3.4,3.4s3.4-1.5,3.4-3.4S26.9,22.1,25,22.1z M36.3,22.1c-1.9,0-3.4,1.5-3.4,3.4s1.5,3.4,3.4,3.4
			c1.9,0,3.4-1.5,3.4-3.4S38.3,22.1,36.3,22.1z"/>
	</g>
</g>
</svg>
