<?xml version="1.0" encoding="utf-8"?>
<!-- Generator: Adobe Illustrator 21.0.0, SVG Export Plug-In . SVG Version: 6.00 Build 0)  -->
<svg version="1.1" id="图层_1" xmlns="http://www.w3.org/2000/svg" xmlns:xlink="http://www.w3.org/1999/xlink" x="0px" y="0px"
	 viewBox="0 0 50 50" style="enable-background:new 0 0 50 50;" xml:space="preserve">
<style type="text/css">
	.st0{fill:#C4C4CC;}
</style>
<path class="st0" d="M31,25c0.2,0.5,0.2,1.1,0.2,1.7c0,3.7-2.8,6.7-6.2,6.7s-6.2-3-6.2-6.7c0-0.6,0.1-1.2,0.2-1.7H0v18.3
	C0,47,2.8,50,6.2,50h37.5c3.4,0,6.2-3,6.2-6.7V25H31z M43.8,6.7h-9.4V3.3C34.4,1.5,33,0,31.2,0H18.8c-1.7,0-3.1,1.5-3.1,3.3v3.3H6.2
	c-3.4,0-6.2,3-6.2,6.7v8.3h50v-8.3C50,9.7,47.2,6.7,43.8,6.7z M31.2,6.7H18.8V5c0-0.9,0.7-1.7,1.6-1.7h9.4c0.9,0,1.6,0.8,1.6,1.7
	L31.2,6.7L31.2,6.7z M28.1,26.7c0-0.6-0.2-1.2-0.5-1.7h-5.4c-0.2,0.5-0.5,1.1-0.5,1.7c0,1.8,1.4,3.3,3.1,3.3
	C26.6,30,28.1,28.5,28.1,26.7z"/>
</svg>
