<?xml version="1.0" encoding="utf-8"?>
<!-- Generator: Adobe Illustrator 21.0.0, SVG Export Plug-In . SVG Version: 6.00 Build 0)  -->
<svg version="1.1" id="图层_1" xmlns="http://www.w3.org/2000/svg" xmlns:xlink="http://www.w3.org/1999/xlink" x="0px" y="0px"
	 viewBox="0 0 50 50" style="enable-background:new 0 0 50 50;" xml:space="preserve">
<style type="text/css">
	.st0{fill:#C4C4CC;}
</style>
<path class="st0" d="M0,25c0,2.7,0.4,5.3,1.2,7.7c0.7,2.3,1.8,4.5,3.2,6.5v8.9c0,1.1,0.8,1.9,1.9,1.9h0.1H25
	c6.9,0,13.1-2.8,17.7-7.3v0l0,0C47.2,38.2,50,31.9,50,25c0-6.9-2.8-13.1-7.3-17.6h0C38.1,2.8,31.9,0,25,0C18.1,0,11.8,2.8,7.3,7.4
	L7.2,7.4C2.8,12,0,18.2,0,25z M11.4,31.1c0-0.6,0.5-1.1,1.1-1.1h24.9c0.7,0,1.2,0.5,1.2,1.1c0,0.7-0.5,1.2-1.2,1.2H12.5
	C11.9,32.3,11.4,31.8,11.4,31.1z M11.4,25c0-0.6,0.5-1.2,1.1-1.2h24.9c0.7,0,1.2,0.5,1.2,1.2c0,0.7-0.5,1.2-1.2,1.2H12.5
	C11.9,26.2,11.4,25.7,11.4,25z M11.4,18.8c0-0.6,0.5-1.2,1.1-1.2h24.9c0.7,0,1.2,0.5,1.2,1.2c0,0.6-0.5,1.2-1.2,1.2H12.5
	C11.9,20,11.4,19.5,11.4,18.8z"/>
</svg>
