<?xml version="1.0" encoding="utf-8"?>
<!-- Generator: Adobe Illustrator 21.0.0, SVG Export Plug-In . SVG Version: 6.00 Build 0)  -->
<svg version="1.1" id="图层_1" xmlns="http://www.w3.org/2000/svg" xmlns:xlink="http://www.w3.org/1999/xlink" x="0px" y="0px"
	 viewBox="0 0 50 50" style="enable-background:new 0 0 50 50;" xml:space="preserve">
<style type="text/css">
	.st0{fill:#C4C4CC;}
</style>
<path class="st0" d="M29.5,4.3c0-2.4-2-4.3-4.4-4.3c-2.4,0-4.4,1.9-4.4,4.3c0,0.2,0,0.5,0.1,0.7c-6.1,2.1-10.6,7.4-10.6,15v8.3
	c0,0-0.6,7.3-2.7,7.3c-1.3,0-2.3,1-2.3,2.2C5.1,39,6,40,7.3,40h35.6c1.2,0,2.2-1,2.2-2.2c0-1.2-1-2.2-2.2-2.2
	c-2.2,0-2.8-7.3-2.8-7.3V20c0-7.6-4.2-12.9-10.6-15C29.5,4.8,29.5,4.6,29.5,4.3z M25,50c-3.7,0-6.6-3-6.7-6.6h13.3
	C31.7,47,28.8,50,25,50z"/>
</svg>
