<?xml version="1.0" encoding="utf-8"?>
<!-- Generator: Adobe Illustrator 21.0.0, SVG Export Plug-In . SVG Version: 6.00 Build 0)  -->
<svg version="1.1" id="图层_1" xmlns="http://www.w3.org/2000/svg" xmlns:xlink="http://www.w3.org/1999/xlink" x="0px" y="0px"
	 viewBox="0 0 100 36" style="enable-background:new 0 0 100 36;" xml:space="preserve">
<style type="text/css">
	.st0{fill:#6EBE0E;}
</style>
<path class="st0" d="M32.8,23.1L26.9,29c-0.4,0.4-1.1,0.4-1.5,0c-0.3-0.3-0.3-0.3-0.3-0.3l-2.4-3c-0.4-0.4-0.4-1.1,0-1.5
	c0.4-0.4,1.1-0.4,1.5,0l2.3,2.5l4.9-5c0.4-0.4,1.1-0.4,1.5,0C33.2,22,33.2,22.7,32.8,23.1z M27.8,21.4l-1.5,1.5
	c-1.5-1.1-3.5-1.8-5.5-1.8c-4.8,0-8.8,3.6-9.3,8.3H9.4c0.4-4.4,3.3-8.1,7.2-9.6c-1.9-1.3-3.1-3.5-3.1-6c0-4,3.3-7.3,7.3-7.3
	c4,0,7.3,3.3,7.3,7.3c0,2.5-1.2,4.7-3.1,6C26,20.2,26.9,20.8,27.8,21.4z M26,13.8c0-2.9-2.3-5.2-5.2-5.2c-2.9,0-5.2,2.3-5.2,5.2
	s2.3,5.2,5.2,5.2C23.7,19,26,16.7,26,13.8z"/>
<path class="st0" d="M52.6,24.4c-0.3,0.2-0.6,0.3-1,0.3H42c-0.8,0-1.1-0.4-1.1-1.2V18h11.6v-7.5l-14,0v1.3h12.6v4.9H40.8V14h-1.4
	v9.9c0,1.5,0.7,2.2,2.1,2.2h10.3c0.7,0,1.3-0.3,1.7-0.6c0.4-0.5,0.7-1.9,0.9-4.2l-1.3-0.4C53.2,22.9,52.9,24.1,52.6,24.4z
	 M64.5,15.4c-1.2-0.8-2.4-1.4-3.8-1.9l-0.7,1c1.2,0.5,2.5,1.1,3.7,2L64.5,15.4z M58.7,12.7h12.6v2.5h1.4v-3.8h-6.8
	c-0.3-0.9-0.5-1.6-0.7-2.1l-1.4,0.2c0.3,0.5,0.5,1.2,0.8,1.9h-7.1v3.8h1.4V12.7z M67.8,15.7v-2.1h-1.4v2.1c-0.1,1.6-0.4,3.1-0.9,4.3
	h-8.7v1.3h8l-0.4,0.6c-1.4,1.5-3.8,2.7-7.2,3.6l0.7,1.1c3.2-0.9,5.6-2,7.1-3.5c2.4,0.9,4.9,2.1,7.3,3.6l0.8-1.2
	c-2.2-1.4-4.6-2.5-7.2-3.4c0.2-0.3,0.4-0.6,0.6-0.9h6.7v-1.3H67C67.4,18.8,67.7,17.4,67.8,15.7z M58.9,17.3c1.3,0.5,2.6,1.2,3.8,2.1
	l0.7-1.1c-1.1-0.8-2.4-1.4-3.8-2L58.9,17.3z M82.9,18.7c3.5-1.6,5.9-3.7,7.3-6.3v-1.2h-7.3c0.4-0.5,0.7-1.1,1-1.6l-1.5-0.2
	c-1.1,2-3.3,3.7-6.5,5l0.9,1.2c2-0.9,3.6-2,4.9-3.2h6.9c-0.9,1.5-2.3,2.9-4.2,4c-0.8-0.7-1.9-1.5-3.4-2.4l-1.2,0.7
	c1.4,0.8,2.6,1.6,3.4,2.3c-2.1,1.1-4.8,1.9-8.1,2.6l0.7,1.3c1.3-0.3,2.6-0.7,3.7-1v6.6H81v-1.1h8.4v1.1h1.4v-7.9L82.9,18.7
	L82.9,18.7z M89.4,24.2H81V20h8.4L89.4,24.2L89.4,24.2z"/>
<path class="st0" d="M92.7,35.7H7.3c-4,0-7.3-3.3-7.3-7.3V7.6c0-4,3.3-7.3,7.3-7.3h85.4c4,0,7.3,3.3,7.3,7.3v20.8
	C100,32.4,96.7,35.7,92.7,35.7z M7.3,2.4c-2.9,0-5.2,2.3-5.2,5.2v20.8c0,2.9,2.3,5.2,5.2,5.2h85.4c2.9,0,5.2-2.3,5.2-5.2l0-20.8
	c0-2.9-2.3-5.2-5.2-5.2H7.3z"/>
</svg>
