<?xml version="1.0" encoding="utf-8"?>
<!-- Generator: Adobe Illustrator 21.0.0, SVG Export Plug-In . SVG Version: 6.00 Build 0)  -->
<svg version="1.1" id="图层_1" xmlns="http://www.w3.org/2000/svg" xmlns:xlink="http://www.w3.org/1999/xlink" x="0px" y="0px"
	 viewBox="0 0 40 40" style="enable-background:new 0 0 40 40;" xml:space="preserve">
<style type="text/css">
	.st0{fill:#6EBE0E;}
</style>
<path class="st0" d="M31.6,12.8h-9.2c-0.4,0-0.7,0.3-0.7,0.7s0.3,0.7,0.7,0.7h9.2c0.4,0,0.7-0.3,0.7-0.7S32,12.8,31.6,12.8z
	 M31.6,16.3h-9.2c-0.4,0-0.7,0.3-0.7,0.7c0,0.4,0.3,0.7,0.7,0.7h9.2c0.4,0,0.7-0.3,0.7-0.7C32.3,16.6,32,16.3,31.6,16.3z M25.6,20.4
	c0-0.4-0.3-0.7-0.7-0.7h-2.5c-0.4,0-0.7,0.3-0.7,0.7c0,0.4,0.3,0.7,0.7,0.7h2.5C25.3,21.1,25.6,20.8,25.6,20.4z M13.2,21.5
	c-0.1,0.1-0.3,0.3-0.6,0.4c-0.3,0.2-0.7,0.4-1.1,0.5c-0.4,0.1-0.8,0.2-1.2,0.4c-0.4,0.1-0.7,0.3-1,0.5c-0.3,0.2-0.5,0.6-0.5,1
	c-0.1,0.8-0.1,1.4-0.1,1.9C8.8,26.6,8.9,26.9,9,27c0.1,0.1,0.2,0.1,0.5,0.2c0.3,0.1,0.6,0.1,1,0.2c0.4,0.1,0.8,0.1,1.3,0.2
	c0.5,0.1,1,0.1,1.4,0.1c0.5,0,0.9,0.1,1.4,0.1s0.8,0,1.2,0c0.3,0,0.7,0,1.2,0c0.5,0,0.9-0.1,1.4-0.1c0.5,0,1-0.1,1.5-0.1
	c0.3,0,0.5-0.1,0.8-0.1v-4.9c-0.1,0-0.2-0.1-0.3-0.1c-0.3-0.1-0.7-0.2-1-0.3c-0.3-0.1-0.6-0.3-0.8-0.4c-0.2-0.2-0.3-0.3-0.4-0.5
	c-0.1-0.2-0.1-0.4-0.1-0.5c0-0.2,0-0.4,0-0.5c0-0.3,0.1-0.5,0.3-0.6c0.1-0.1,0.3-0.3,0.5-0.4c0.1-0.1,0.2-0.2,0.3-0.3
	c0.1-0.1,0.1-0.3,0.2-0.4c0.1-0.2,0.1-0.4,0.2-0.6c0.1,0,0.2-0.1,0.3-0.2c0.1-0.1,0.2-0.2,0.3-0.3c0.1-0.1,0.1-0.3,0.1-0.6
	c0-0.2,0-0.3,0-0.5c0-0.1-0.1-0.2-0.1-0.3c0-0.1-0.1-0.2-0.2-0.2c0-0.5,0-1-0.1-1.4c-0.1-0.4-0.2-0.8-0.3-1.3
	c-0.1-0.4-0.4-0.9-0.7-1.2c-0.1-0.2-0.3-0.3-0.5-0.5c-0.2-0.2-0.5-0.3-0.8-0.4c-0.3-0.1-0.6-0.2-0.9-0.3c-0.3-0.1-0.7-0.1-1-0.1
	c-0.3,0-0.5,0-0.8,0.1c-0.3,0-0.6,0.1-0.9,0.2c-0.3,0.1-0.6,0.3-0.8,0.5c-0.3,0.2-0.5,0.5-0.7,0.8c-0.2,0.3-0.4,0.7-0.6,1.2
	c-0.1,0.4-0.2,0.8-0.3,1.2c-0.1,0.4-0.1,0.9-0.1,1.3c-0.1,0.1-0.2,0.2-0.2,0.4c0,0.1-0.1,0.3-0.1,0.4c0,0.2,0,0.3,0.1,0.5
	c0.1,0.2,0.1,0.3,0.2,0.5c0.1,0.1,0.2,0.2,0.2,0.2c0.1,0.1,0.2,0.1,0.2,0.1c0.1,0.2,0.1,0.4,0.2,0.6c0.1,0.2,0.1,0.3,0.2,0.4
	c0.1,0.1,0.2,0.3,0.2,0.3c0.2,0.2,0.4,0.3,0.5,0.5c0.2,0.2,0.3,0.4,0.3,0.6c0,0.2,0,0.4,0,0.5c0,0.2,0,0.3-0.1,0.4
	C13.4,21.2,13.3,21.3,13.2,21.5z"/>
<path class="st0" d="M23,35.1c-1,0.2-2,0.3-3,0.3c-8.5,0-15.4-6.9-15.4-15.4S11.5,4.6,20,4.6c8.5,0,15.4,6.9,15.4,15.4
	c0,1.3-0.2,2.6-0.5,3.8c0.7,0.5,1.2,1.1,1.7,1.7c0.6-1.7,0.9-3.6,0.9-5.5c0-9.7-7.8-17.5-17.5-17.5C10.3,2.5,2.5,10.3,2.5,20
	S10.3,37.5,20,37.5c1.6,0,3.2-0.2,4.6-0.6C24,36.4,23.5,35.7,23,35.1z"/>
<path class="st0" d="M29.9,23.7c-3.8,0-6.9,3.1-6.9,6.9c0,3.8,3.1,6.9,6.9,6.9c3.8,0,6.9-3.1,6.9-6.9C36.8,26.8,33.7,23.7,29.9,23.7
	z M34.6,28.7l-5.1,5c-0.4,0.4-0.9,0.4-1.3,0l-2.9-2.9c-0.4-0.3-0.4-0.9,0-1.3c0,0,0,0,0,0c0.4-0.4,0.9-0.4,1.3,0l2.3,2.2l4.4-4.3
	c0.4-0.4,0.9-0.4,1.3,0C34.9,27.8,34.9,28.4,34.6,28.7z"/>
</svg>
