<?xml version="1.0" encoding="utf-8"?>
<!-- Generator: Adobe Illustrator 21.0.0, SVG Export Plug-In . SVG Version: 6.00 Build 0)  -->
<svg version="1.1" id="图层_1" xmlns="http://www.w3.org/2000/svg" xmlns:xlink="http://www.w3.org/1999/xlink" x="0px" y="0px"
	 viewBox="0 0 50 50" style="enable-background:new 0 0 50 50;" xml:space="preserve">
<style type="text/css">
	.st0{fill:#959599;}
</style>
<g>
	<path class="st0" d="M40.1,3C41.7,3,43,4.3,43,5.9v31.9L33.8,47H9.9C8.3,47,7,45.7,7,44.1V5.9C7,4.3,8.3,3,9.9,3H40.1 M40.1,0H9.9
		C6.6,0,4,2.6,4,5.9v38.2C4,47.4,6.6,50,9.9,50h23.9c0.8,0,1.5-0.3,2-0.8l9.3-9.3c0.5-0.5,0.8-1.3,0.8-2V5.9C46,2.6,43.4,0,40.1,0
		L40.1,0z"/>
</g>
<g>
	<path class="st0" d="M34.6,13H15.4c-0.8,0-1.4,0.6-1.4,1.4v0.2c0,0.8,0.6,1.4,1.4,1.4h19.2c0.8,0,1.4-0.6,1.4-1.4v-0.2
		C36,13.6,35.4,13,34.6,13L34.6,13z"/>
</g>
<g>
	<path class="st0" d="M34.6,23.5H15.4c-0.8,0-1.4,0.6-1.4,1.4v0.2c0,0.8,0.6,1.4,1.4,1.4h19.2c0.8,0,1.4-0.6,1.4-1.4v-0.2
		C36,24.1,35.4,23.5,34.6,23.5L34.6,23.5z"/>
</g>
<g>
	<path class="st0" d="M24.7,34h-9.3c-0.8,0-1.4,0.6-1.4,1.4v0.2c0,0.8,0.6,1.4,1.4,1.4h9.3c0.8,0,1.4-0.6,1.4-1.4v-0.2
		C26.1,34.6,25.4,34,24.7,34L24.7,34z"/>
</g>
<g>
	<path class="st0" d="M36.3,48.7c-1.4,1.4-4,0.7-4.3-1.3c0-0.1,0-0.3,0-0.4v-7.8c0-1.8,1.4-3.2,3.2-3.2H43l0,0
		c2.2,0,3.3,2.7,1.7,4.2L36.3,48.7z"/>
</g>
</svg>
