<?xml version="1.0" encoding="utf-8"?>
<!-- Generator: Adobe Illustrator 21.0.0, SVG Export Plug-In . SVG Version: 6.00 Build 0)  -->
<svg version="1.1" id="图层_1" xmlns="http://www.w3.org/2000/svg" xmlns:xlink="http://www.w3.org/1999/xlink" x="0px" y="0px"
	 viewBox="0 0 50 50" style="enable-background:new 0 0 50 50;" xml:space="preserve">
<style type="text/css">
	.st0{fill:#13B7F6;}
	.st1{fill:#FFFFFF;}
</style>
<g>
	<path class="st0" d="M40.1,0H9.9C6.6,0,4,2.6,4,5.9v38.2C4,47.4,6.6,50,9.9,50h23.9c0.8,0,1.5-0.3,2-0.8l9.3-9.3
		c0.5-0.5,0.8-1.3,0.8-2v-32C46,2.6,43.4,0,40.1,0L40.1,0z"/>
</g>
<g>
	<path class="st0" d="M9.8,50H40c3.3,0,5.9-2.6,5.9-5.9V5.9C45.9,2.6,43.3,0,40,0H16.1c-0.8,0-1.5,0.3-2,0.8l-9.3,9.3
		c-0.5,0.5-0.8,1.3-0.8,2v32C3.9,47.4,6.5,50,9.8,50L9.8,50z"/>
</g>
<g>
	<path class="st1" d="M34.6,13H15.4c-0.8,0-1.4,0.6-1.4,1.4v0.2c0,0.8,0.6,1.4,1.4,1.4h19.2c0.8,0,1.4-0.6,1.4-1.4v-0.2
		C36,13.6,35.4,13,34.6,13L34.6,13z"/>
</g>
<g>
	<path class="st1" d="M34.6,23.5H15.4c-0.8,0-1.4,0.6-1.4,1.4v0.2c0,0.8,0.6,1.4,1.4,1.4h19.2c0.8,0,1.4-0.6,1.4-1.4v-0.2
		C36,24.1,35.4,23.5,34.6,23.5L34.6,23.5z"/>
</g>
<g>
	<path class="st1" d="M24.7,34h-9.3c-0.8,0-1.4,0.6-1.4,1.4v0.2c0,0.8,0.6,1.4,1.4,1.4h9.3c0.8,0,1.4-0.6,1.4-1.4v-0.2
		C26.1,34.6,25.4,34,24.7,34L24.7,34z"/>
</g>
</svg>
