<?xml version="1.0" encoding="utf-8"?>
<!-- Generator: Adobe Illustrator 21.0.0, SVG Export Plug-In . SVG Version: 6.00 Build 0)  -->
<svg version="1.1" id="图层_1" xmlns="http://www.w3.org/2000/svg" xmlns:xlink="http://www.w3.org/1999/xlink" x="0px" y="0px"
	 viewBox="0 0 40 40" style="enable-background:new 0 0 40 40;" xml:space="preserve">
<style type="text/css">
	.st0{fill:#FFFFFF;}
	.st1{fill:#08C8CD;}
</style>
<g>
	<path class="st0" d="M20,38.5C9.8,38.5,1.5,30.2,1.5,20S9.8,1.5,20,1.5S38.5,9.8,38.5,20S30.2,38.5,20,38.5z"/>
	<path class="st1" d="M20,3c9.4,0,17,7.6,17,17s-7.6,17-17,17S3,29.4,3,20S10.6,3,20,3 M20,0C9,0,0,9,0,20s9,20,20,20s20-9,20-20
		S31,0,20,0L20,0z"/>
</g>
<g>
	<circle class="st1" cx="20" cy="20" r="8"/>
</g>
</svg>
