<?xml version="1.0" encoding="utf-8"?>
<!-- Generator: Adobe Illustrator 21.0.0, SVG Export Plug-In . SVG Version: 6.00 Build 0)  -->
<svg version="1.1" id="图层_1" xmlns="http://www.w3.org/2000/svg" xmlns:xlink="http://www.w3.org/1999/xlink" x="0px" y="0px"
	 viewBox="0 0 44 44" style="enable-background:new 0 0 44 44;" xml:space="preserve">
<style type="text/css">
	.st0{fill:#313133;}
	.st1{fill:#FFFFFF;}
</style>
<path class="st0" d="M2.3,39.6c-0.7,0-1.4-0.4-1.9-1C0.1,38.3,0,37.9,0,37.5l0-0.1l0,0c0,0,0-22.1,0-22.1l0-0.1
	c0.1-0.7,0.5-1.3,1.1-1.7c0.3-0.3,0.8-0.6,1.3-1c0.9-0.7,2.2-1.7,3.7-2.8V6.9c0-1.8,1.5-3.4,3.4-3.4h4.9c1.9-1.4,3.4-2.5,4.1-2.9
	l0.3-0.2C19.1,0.1,19.5,0,19.8,0c0.4,0,0.7,0.1,1,0.3c0.1,0.1,1.9,1.4,4.2,3.1h5c1.9,0,3.4,1.5,3.4,3.4v2.8c1.6,1.2,2.8,2.1,3.7,2.8
	c0.6,0.4,1,0.8,1.3,1c0.6,0.3,1,1,1.2,1.7l0,0.1v22c0,0.1,0,0.2,0,0.3c0,0.4-0.1,0.7-0.3,1c-0.4,0.6-1,1-1.7,1.1l0,0l-0.2,0H2.3z
	 M33.5,36.3c-3.5-2.5-9.2-6.4-13.7-9.5c-4.5,3.1-10.2,7-13.7,9.5H33.5z M29.8,29.6c2.9,2,4.9,3.4,6.3,4.4c0.1,0.1,0.2,0.1,0.2,0.2
	V18.8l-3.4,2.8c-0.1,0.1-0.2,0.2-0.3,0.2l-6.4,5.3C27.4,27.9,28.6,28.8,29.8,29.6z M3.3,34.2c0.1-0.1,0.1-0.1,0.2-0.2
	c1.5-1.1,3.6-2.5,6.3-4.4c1.2-0.9,2.5-1.7,3.6-2.5l-6.3-5.2c-0.2-0.1-0.4-0.2-0.5-0.4l-3.3-2.7V34.2z M19.8,23.1
	c0.3,0,0.6,0.1,0.9,0.3l2.7,1.8l6.7-5.5V6.9L9.6,6.8l-0.1,3.6c0,0,0,0.1,0,0.2l0,9l6.7,5.5l2.6-1.8C19.1,23.1,19.5,23.1,19.8,23.1z
	 M33.4,16.9l1.9-1.6c-0.5-0.4-1.2-0.9-1.9-1.5V16.9z M6.2,16.9v-3.1c-0.8,0.6-1.5,1.1-1.9,1.5L6.2,16.9z"/>
<rect x="28" y="28" class="st1" width="16" height="16"/>
<g>
	<polygon class="st0" points="31.1,41.1 41.1,31.1 31.1,31.1 	"/>
	<rect x="36.2" y="33.7" transform="matrix(0.7071 -0.7071 0.7071 0.7071 -16.0287 38.6967)" class="st0" width="5" height="10"/>
</g>
<polygon class="st1" points="18.6,3.7 19.8,2.9 21,3.7 "/>
</svg>
