<?xml version="1.0" encoding="utf-8"?>
<!-- Generator: Adobe Illustrator 21.0.0, SVG Export Plug-In . SVG Version: 6.00 Build 0)  -->
<svg version="1.1" id="图层_1" xmlns="http://www.w3.org/2000/svg" xmlns:xlink="http://www.w3.org/1999/xlink" x="0px" y="0px"
	 viewBox="0 0 40 40" style="enable-background:new 0 0 40 40;" xml:space="preserve">
<style type="text/css">
	.st0{fill:#C4C4CC;}
</style>
<path class="st0" d="M27,9.8c-4.7-4.7-12.4-4.7-17.2,0S5.1,22.3,9.8,27c4.7,4.7,12.4,4.7,17.2,0v0C31.7,22.3,31.7,14.6,27,9.8
	C27,9.8,27,9.8,27,9.8z M7.2,29.6c-6.2-6.2-6.2-16.3,0-22.5c6.2-6.2,16.3-6.2,22.5,0c6.2,6.2,6.2,16.3,0,22.5
	C23.4,35.9,13.4,35.9,7.2,29.6C7.2,29.6,7.2,29.6,7.2,29.6z M36.9,36.9c-0.8,0.8-2.2,0.8-3.1,0l-3.1-3.1c-0.8-0.8-0.8-2.2,0-3.1
	c0.8-0.8,2.2-0.8,3.1,0l3.1,3.1C37.7,34.6,37.7,36,36.9,36.9z"/>
</svg>
