<?xml version="1.0" encoding="utf-8"?>
<!-- Generator: Adobe Illustrator 21.0.0, SVG Export Plug-In . SVG Version: 6.00 Build 0)  -->
<svg version="1.1" id="图层_1" xmlns="http://www.w3.org/2000/svg" xmlns:xlink="http://www.w3.org/1999/xlink" x="0px" y="0px"
	 viewBox="0 0 40 40" style="enable-background:new 0 0 40 40;" xml:space="preserve">
<style type="text/css">
	.st0{fill:#F55652;}
</style>
<g>
	<path class="st0" d="M14.5,20.1c3.7,0,6.7,3,6.7,6.7s-3,6.7-6.7,6.7s-6.7-3-6.7-6.7S10.8,20.1,14.5,20.1 M14.5,17.1
		c-5.3,0-9.7,4.3-9.7,9.7s4.3,9.7,9.7,9.7s9.7-4.3,9.7-9.7S19.8,17.1,14.5,17.1L14.5,17.1z"/>
</g>
<path class="st0" d="M17.7,28h-6.4c-0.7,0-1.2-0.5-1.2-1.2v0c0-0.7,0.5-1.2,1.2-1.2h6.4c0.7,0,1.2,0.5,1.2,1.2v0
	C18.9,27.4,18.4,28,17.7,28z"/>
<path class="st0" d="M13.3,30v-6.4c0-0.7,0.5-1.2,1.2-1.2h0c0.7,0,1.2,0.5,1.2,1.2V30c0,0.7-0.5,1.2-1.2,1.2h0
	C13.8,31.2,13.3,30.6,13.3,30z"/>
<g>
	<path class="st0" d="M29.5,18c-0.6,0-0.9-0.2-1.1-0.4c-0.2-0.3-0.4-0.7-0.4-1.2v-2.7h-3.2c-0.8,0-1.4-0.6-1.4-1.4
		c0-0.8,0.5-1.4,1.3-1.4h3.2V9.7h-3.2c-0.8,0-1.4-0.6-1.4-1.4c0-0.8,0.5-1.4,1.3-1.4h1.8l-2.8-4.7c-0.6-0.9-0.2-1.7,0.3-2
		C24.4,0.1,24.7,0,24.9,0H25l0.2,0c0.3,0.1,0.6,0.3,0.9,0.7l3.5,6.1l3.4-6C33.1,0.6,33.4,0,34.1,0c0.3,0,0.6,0.1,0.8,0.3
		c0.4,0.2,0.6,0.6,0.6,1.1c0,0.3-0.1,0.6-0.3,0.9L32.5,7h1.7c0.8,0,1.4,0.6,1.4,1.4c0,0.8-0.6,1.4-1.4,1.4H31v1.1h3.2
		c0.8,0,1.4,0.6,1.4,1.4c0,0.8-0.6,1.4-1.4,1.4H31v2.7c0,0.3,0,0.8-0.3,1.1C30.5,17.7,30.2,18,29.5,18z"/>
	<path class="st0" d="M30.1,11.8h4.1c0.3,0,0.5,0.2,0.5,0.5c0,0.3-0.2,0.5-0.5,0.5h-4.1v3.7c0,0.3,0,0.5-0.1,0.6
		c-0.1,0.1-0.2,0.1-0.4,0.1c-0.2,0-0.3,0-0.4-0.1C29,16.8,29,16.7,29,16.4v-3.7h-4.1c-0.3,0-0.5-0.2-0.5-0.5c0-0.3,0.1-0.5,0.4-0.5
		H29v-3h-4.1c-0.3,0-0.5-0.2-0.5-0.5c0-0.3,0.1-0.5,0.4-0.5h3.4l-3.6-6.1c-0.2-0.3-0.2-0.6,0.1-0.8c0.1-0.1,0.2-0.1,0.3-0.1
		c0.1,0,0.2,0.1,0.3,0.3l3.9,6.7H30l3.8-6.6c0.1-0.2,0.3-0.4,0.4-0.4c0.1,0,0.2,0,0.3,0.1c0.1,0.1,0.2,0.2,0.2,0.3
		c0,0.1-0.1,0.3-0.2,0.5l-3.5,6.1h3.3c0.3,0,0.5,0.2,0.5,0.5c0,0.3-0.2,0.5-0.5,0.5h-4.1V11.8z"/>
</g>
<g>
	<path class="st0" d="M40,11.9V36c0,2.2-1.9,4-4.2,4H4.2C1.9,40,0,38.2,0,36V11c0-2.2,1.9-4,4.2-4h14.4v2.7H4.2
		c-0.8,0-1.4,0.6-1.4,1.3v25c0,0.7,0.6,1.3,1.4,1.3h31.6c0.8,0,1.4-0.6,1.4-1.3V11.9H40z"/>
</g>
</svg>
