<?xml version="1.0" encoding="utf-8"?>
<!-- Generator: Adobe Illustrator 21.0.0, SVG Export Plug-In . SVG Version: 6.00 Build 0)  -->
<svg version="1.1" id="图层_1" xmlns="http://www.w3.org/2000/svg" xmlns:xlink="http://www.w3.org/1999/xlink" x="0px" y="0px"
	 viewBox="0 0 40 40" style="enable-background:new 0 0 40 40;" xml:space="preserve">
<style type="text/css">
	.st0{fill:#089FF6;}
</style>
<g>
	<path class="st0" d="M30,13.9c-1.1,0-1.9,0.9-1.9,1.9c0,1.1,0.9,1.9,1.9,1.9c1.1,0,1.9-0.9,1.9-1.9C31.9,14.8,31,13.9,30,13.9
		L30,13.9z M20,13.9c-1.1,0-1.9,0.9-1.9,1.9c0,1.1,0.9,1.9,1.9,1.9c1.1,0,1.9-0.9,1.9-1.9C21.9,14.8,21,13.9,20,13.9L20,13.9z
		 M10,13.9c-1.1,0-1.9,0.9-1.9,1.9c0,1.1,0.9,1.9,1.9,1.9c1.1,0,1.9-0.9,1.9-1.9C11.9,14.8,11.1,13.9,10,13.9L10,13.9z M30,21.9
		c-1.1,0-1.9,0.9-1.9,1.9c0,1.1,0.9,1.9,1.9,1.9c1.1,0,1.9-0.9,1.9-1.9C31.9,22.8,31,21.9,30,21.9L30,21.9z M20,21.9
		c-1.1,0-1.9,0.9-1.9,1.9c0,1.1,0.9,1.9,1.9,1.9c1.1,0,1.9-0.9,1.9-1.9C21.9,22.8,21,21.9,20,21.9L20,21.9z M10,21.9
		c-1.1,0-1.9,0.9-1.9,1.9c0,1.1,0.9,1.9,1.9,1.9c1.1,0,1.9-0.9,1.9-1.9C11.9,22.8,11.1,21.9,10,21.9L10,21.9z M30,29.5
		c-1.1,0-1.9,0.9-1.9,1.9c0,1,0.9,1.9,1.9,1.9c1.1,0,1.9-0.9,1.9-1.9C31.9,30.4,31,29.5,30,29.5L30,29.5z M20,29.5
		c-1.1,0-1.9,0.9-1.9,1.9c0,1.1,0.9,1.9,1.9,1.9c1.1,0,1.9-0.9,1.9-1.9C21.9,30.4,21,29.5,20,29.5L20,29.5z M10,29.5
		c-1.1,0-1.9,0.9-1.9,1.9c0,1.1,0.9,1.9,1.9,1.9c1.1,0,1.9-0.9,1.9-1.9C11.9,30.4,11.1,29.5,10,29.5L10,29.5z"/>
</g>
<g>
	<path class="st0" d="M31,6.8H9c-0.8,0-1.5,0.7-1.5,1.5S8.2,9.8,9,9.8h22c0.8,0,1.5-0.7,1.5-1.5S31.8,6.8,31,6.8L31,6.8z"/>
</g>
<g>
	<path class="st0" d="M35,3v34H5V3H35 M35,0H5C3.3,0,2,1.3,2,3v34c0,1.7,1.3,3,3,3h30c1.7,0,3-1.3,3-3V3C38,1.3,36.7,0,35,0L35,0z"
		/>
</g>
</svg>
