<?xml version="1.0" encoding="utf-8"?>
<!-- Generator: Adobe Illustrator 21.0.0, SVG Export Plug-In . SVG Version: 6.00 Build 0)  -->
<svg version="1.1" id="图层_1" xmlns="http://www.w3.org/2000/svg" xmlns:xlink="http://www.w3.org/1999/xlink" x="0px" y="0px"
	 viewBox="0 0 40 40" style="enable-background:new 0 0 40 40;" xml:space="preserve">
<style type="text/css">
	.st0{fill:#F29A2C;}
</style>
<path class="st0" d="M19.2,40c-2.5,0-4.5-2-4.5-4.5v-8.6c-3.1-1.9-5-5.2-5-8.8c0-5.7,4.7-10.3,10.4-10.3c5.7,0,10.4,4.6,10.4,10.3
	c0,3.6-1.9,6.9-5,8.8v8.6c0,2.5-2,4.5-4.5,4.5H19.2z M17,35c0.1,0.6,0.4,1.2,0.8,1.7c0.6,0.6,1.3,0.9,2.1,0.9c1.5,0,2.8-1.1,3-2.6
	H17z M23,32.6v-0.9h-6v0.9H23z M23,29.3v-4.3l0.2-0.1c2.7-1.2,4.5-3.9,4.5-6.9c0-2-0.8-3.9-2.2-5.4C24,11.3,22,10.5,20,10.5
	c-4.2,0-7.7,3.4-7.7,7.6c0,2.9,1.8,5.7,4.5,6.9l0.2,0.1v4.3H23z"/>
<path class="st0" d="M20,4.4L20,4.4c-0.7,0-1.3-0.6-1.3-1.3V1.3C18.7,0.6,19.3,0,20,0h0c0.7,0,1.3,0.6,1.3,1.3v1.8
	C21.3,3.8,20.7,4.4,20,4.4z"/>
<path class="st0" d="M32.6,16.3L32.6,16.3c0-0.7,0.6-1.3,1.3-1.3h1.8c0.7,0,1.3,0.6,1.3,1.3v0c0,0.7-0.6,1.3-1.3,1.3h-1.8
	C33.2,17.6,32.6,17,32.6,16.3z"/>
<path class="st0" d="M3,16.3L3,16.3C3,15.6,3.6,15,4.3,15h1.8c0.7,0,1.3,0.6,1.3,1.3v0c0,0.7-0.6,1.3-1.3,1.3H4.3
	C3.6,17.6,3,17,3,16.3z"/>
<path class="st0" d="M7.6,4.7L7.6,4.7c0.5-0.5,1.3-0.5,1.8,0l1.3,1.3c0.5,0.5,0.5,1.3,0,1.8l0,0c-0.5,0.5-1.3,0.5-1.8,0L7.6,6.5
	C7,6,7,5.2,7.6,4.7z"/>
<path class="st0" d="M32.7,4.7L32.7,4.7c0.5,0.5,0.5,1.3,0,1.8l-1.3,1.3c-0.5,0.5-1.3,0.5-1.8,0l0,0c-0.5-0.5-0.5-1.3,0-1.8l1.3-1.3
	C31.3,4.1,32.2,4.1,32.7,4.7z"/>
</svg>
