<?xml version="1.0" encoding="utf-8"?>
<!-- Generator: Adobe Illustrator 21.0.0, SVG Export Plug-In . SVG Version: 6.00 Build 0)  -->
<svg version="1.1" id="图层_1" xmlns="http://www.w3.org/2000/svg" xmlns:xlink="http://www.w3.org/1999/xlink" x="0px" y="0px"
	 viewBox="0 0 28 28" style="enable-background:new 0 0 28 28;" xml:space="preserve">
<style type="text/css">
	.st0{fill:#FFFFFF;}
	.st1{fill:#FBB220;}
</style>
<g>
	<path class="st0" d="M22,28H6c-3.3,0-6-2.7-6-6V6c0-3.3,2.7-6,6-6h16c3.3,0,6,2.7,6,6v16C28,25.3,25.3,28,22,28z"/>
</g>
<g>
	<path class="st1" d="M28,5.3C27.9,2.3,25.5,0,22.5,0h-17C2.5,0,0.1,2.3,0,5.3c0,0,0,0,0,0v5.4C0,10.9,0.1,11,0.3,11h5.2h17h5.2
		c0.2,0,0.3-0.1,0.3-0.3L28,5.3C28,5.3,28,5.3,28,5.3z"/>
</g>
<g>
	<path class="st1" d="M21.7,13.8c-0.6-0.6-1.5-0.6-2.1,0l-7.3,7.3l-3.8-3.8c-0.6-0.6-1.5-0.6-2.1,0s-0.6,1.5,0,2.1l4.9,4.9
		c0.3,0.3,0.7,0.4,1.1,0.4c0.4,0,0.8-0.1,1.1-0.4l8.4-8.4C22.3,15.3,22.3,14.3,21.7,13.8z"/>
</g>
</svg>
