<?xml version="1.0" encoding="utf-8"?>
<!-- Generator: Adobe Illustrator 21.0.0, SVG Export Plug-In . SVG Version: 6.00 Build 0)  -->
<svg version="1.1" id="图层_1" xmlns="http://www.w3.org/2000/svg" xmlns:xlink="http://www.w3.org/1999/xlink" x="0px" y="0px"
	 viewBox="0 0 35 28" style="enable-background:new 0 0 35 28;" xml:space="preserve">
<style type="text/css">
	.st0{fill:#FFFFFF;}
	.st1{fill:#FBB220;}
</style>
<g>
	<path class="st0" d="M22,28H6c-3.3,0-6-2.7-6-6V6c0-3.3,2.7-6,6-6h16c3.3,0,6,2.7,6,6v16C28,25.3,25.3,28,22,28z"/>
</g>
<g>
	<path class="st1" d="M27.9,5.3C27.8,2.3,25.4,0,22.4,0h-17C2.5,0,0.1,2.3,0,5.3c0,0,0,0,0,0v5.4C0,10.9,0.1,11,0.3,11h5.2h17h5.2
		c0.2,0,0.3-0.1,0.3-0.3L27.9,5.3C27.9,5.3,27.9,5.3,27.9,5.3z"/>
</g>
<g>
	<path class="st0" d="M23.2,19.9L21.7,19c-1-0.6-1.3-1.9-0.8-2.9L29.6,1c0.6-1,1.9-1.3,2.8-0.8L34,1.2c1,0.6,1.3,1.9,0.8,2.9
		l-8.6,15.1C25.5,20.2,24.2,20.5,23.2,19.9z"/>
</g>
<polygon class="st1" points="20.7,22.4 20.7,16.4 25.9,19.4 "/>
</svg>
