<?xml version="1.0" encoding="utf-8"?>
<!-- Generator: Adobe Illustrator 21.0.0, SVG Export Plug-In . SVG Version: 6.00 Build 0)  -->
<svg version="1.1" id="图层_1" xmlns="http://www.w3.org/2000/svg" xmlns:xlink="http://www.w3.org/1999/xlink" x="0px" y="0px"
	 viewBox="0 0 30 30" style="enable-background:new 0 0 30 30;" xml:space="preserve">
<style type="text/css">
	.st0{fill:#47C7E7;}
</style>
<g>
	<path class="st0" d="M14.8,26l-5.9,3.1c-0.4,0.2-0.9,0.3-1.4,0.3c-0.6,0-1.2-0.2-1.7-0.6c-0.9-0.7-1.4-1.8-1.2-2.9l1.1-6.6
		c0-0.1,0-0.2-0.1-0.3l-4.8-4.6c-0.8-0.8-1.1-2-0.7-3c0.4-1.1,1.3-1.9,2.4-2l6.6-1c0.1,0,0.2-0.1,0.3-0.2l2.9-6
		c0.5-1,1.5-1.7,2.7-1.7c1.1,0,2.2,0.6,2.7,1.7l2.9,6c0.1,0.1,0.2,0.2,0.3,0.2l6.6,1c1.1,0.2,2,0.9,2.4,2s0.1,2.2-0.7,3L24.4,19
		c-0.1,0.1-0.1,0.2-0.1,0.3l0.1,1.6l-2.6,0.4l-0.1-1.6c-0.2-1,0.2-1.9,0.9-2.6l4.8-4.6c0.1-0.1,0.1-0.3,0.1-0.4
		c0-0.1-0.1-0.2-0.3-0.2l-6.6-1c-1-0.1-1.8-0.7-2.2-1.6l-2.9-6C15.3,3,15,3,14.9,3.3l-2.9,6c-0.4,0.9-1.3,1.5-2.2,1.6l-6.6,1
		c-0.2,0-0.3,0.1-0.3,0.2s0,0.2,0.1,0.4l4.8,4.6c0.7,0.7,1,1.7,0.9,2.6l-1.1,6.6c0,0.2,0.1,0.3,0.1,0.4c0.1,0.1,0.2,0.1,0.4,0
		l5.9-3.1L14.8,26z"/>
</g>
<g>
	<rect x="18.5" y="23.6" transform="matrix(0.707 -0.7072 0.7072 0.707 -13.2008 21.85)" class="st0" width="2.5" height="6.5"/>
</g>
<g>
	
		<rect x="18.5" y="23.6" transform="matrix(0.7071 -0.7071 0.7071 0.7071 -10.3487 24.6951)" class="st0" width="12.2" height="2.5"/>
</g>
</svg>
