<?xml version="1.0" encoding="utf-8"?>
<!-- Generator: Adobe Illustrator 21.0.0, SVG Export Plug-In . SVG Version: 6.00 Build 0)  -->
<svg version="1.1" id="图层_1" xmlns="http://www.w3.org/2000/svg" xmlns:xlink="http://www.w3.org/1999/xlink" x="0px" y="0px"
	 viewBox="0 0 30 30" style="enable-background:new 0 0 30 30;" xml:space="preserve">
<style type="text/css">
	.st0{fill:#47C7E7;}
</style>
<path class="st0" d="M17,23.9h10.5v-2.1H17V23.9 M10.8,15.5h16.8v-2.1H10.8V15.5 M21.2,7.2h6.3V5.1h-6.3V7.2 M29.6,20.8V25
	c0,0.3-0.1,0.5-0.3,0.7c-0.2,0.2-0.4,0.3-0.7,0.3l0,0H1.3c-0.3,0-0.5-0.1-0.7-0.3c-0.2-0.2-0.3-0.4-0.3-0.7l0,0v-4.2
	c0-0.3,0.1-0.5,0.3-0.7s0.4-0.3,0.7-0.3l0,0h27.2c0.3,0,0.5,0.1,0.7,0.3C29.5,20.2,29.6,20.5,29.6,20.8 M29.6,12.4v4.2
	c0,0.3-0.1,0.5-0.3,0.7c-0.2,0.2-0.4,0.3-0.7,0.3l0,0H1.3c-0.3,0-0.5-0.1-0.7-0.3c-0.2-0.2-0.3-0.4-0.3-0.7l0,0v-4.2
	c0-0.3,0.1-0.5,0.3-0.7s0.4-0.3,0.7-0.3l0,0h27.2c0.3,0,0.5,0.1,0.7,0.3C29.5,11.9,29.6,12.1,29.6,12.4 M29.6,4v4.2
	c0,0.3-0.1,0.5-0.3,0.7c-0.2,0.2-0.4,0.3-0.7,0.3l0,0H1.3C1,9.2,0.8,9.1,0.6,8.9C0.4,8.8,0.3,8.5,0.3,8.2l0,0V4
	c0-0.3,0.1-0.5,0.3-0.7S1,3,1.3,3l0,0h27.2c0.3,0,0.5,0.1,0.7,0.3C29.5,3.5,29.6,3.8,29.6,4L29.6,4z"/>
</svg>
