<?xml version="1.0" encoding="utf-8"?>
<!-- Generator: Adobe Illustrator 21.0.0, SVG Export Plug-In . SVG Version: 6.00 Build 0)  -->
<svg version="1.1" id="图层_1" xmlns="http://www.w3.org/2000/svg" xmlns:xlink="http://www.w3.org/1999/xlink" x="0px" y="0px"
	 viewBox="0 0 30 30" style="enable-background:new 0 0 30 30;" xml:space="preserve">
<style type="text/css">
	.st0{fill:#47C7E7;}
</style>
<path class="st0" d="M23.3,16.7c-2.6,0-4.2,1-5.4,2.9c-3.9-0.5-6.8-3.7-7.2-7.6c1.8-1.2,2.8-2.3,3-5.1C13.9,2.8,10.4,0,6.8,0
	C2.9,0,0,2.8,0,6.7C0,19.1,12.3,30,23.1,30c4.4,0,6.9-2.8,6.9-6.8C30,19.4,27.4,16.7,23.3,16.7z M23.2,27.3L23.2,27.3
	c-9,0-20.5-9.8-20.5-20.5c0-2.4,1.8-4,4.1-4s4,1.6,4,4c0,1.6-0.6,2.5-2,3.3L8,10.3v1c0.1,5.6,4.6,10.5,10.4,10.9l1,0.1l0.3-0.8
	c0.7-1.5,2.2-2.2,3.6-2.2c2.4,0,4.1,1.2,4.1,3.7C27.3,25.5,25.6,27.3,23.2,27.3z"/>
</svg>
