<?xml version="1.0" encoding="utf-8"?>
<!-- Generator: Adobe Illustrator 21.0.0, SVG Export Plug-In . SVG Version: 6.00 Build 0)  -->
<svg version="1.1" id="图层_1" xmlns="http://www.w3.org/2000/svg" xmlns:xlink="http://www.w3.org/1999/xlink" x="0px" y="0px"
	 viewBox="0 0 30 30" style="enable-background:new 0 0 30 30;" xml:space="preserve">
<style type="text/css">
	.st0{fill:#47C7E7;}
</style>
<path class="st0" d="M26.6,7.2l-4.1-4L11.2,14.4l4.1,4C15.3,18.5,26.6,7.2,26.6,7.2z M9,20.5l5.3-1.3l-3.9-3.8L9,20.5z M29.2,1.5
	l-0.8-0.8c-0.9-0.9-2.4-0.9-3.3,0l0,0l-1.6,1.5l4.1,4l1.6-1.5C30.1,3.9,30.1,2.4,29.2,1.5L29.2,1.5z"/>
<path class="st0" d="M24.4,26.9c0,0.3-0.3,0.6-0.6,0.6l0,0H3.3c-0.3,0-0.6-0.3-0.6-0.6l0,0V4.4c0-0.3,0.3-0.6,0.6-0.6l0,0h15.8V1.2
	H3.3c-1.7,0-3.1,1.4-3.1,3.1v22.5c0,1.7,1.4,3.2,3.1,3.2l0,0h20.5c1.7,0,3.1-1.4,3.1-3.1V11.8h-2.5V26.9z"/>
</svg>
