<?xml version="1.0" encoding="utf-8"?>
<!-- Generator: Adobe Illustrator 21.0.0, SVG Export Plug-In . SVG Version: 6.00 Build 0)  -->
<svg version="1.1" id="图层_1" xmlns="http://www.w3.org/2000/svg" xmlns:xlink="http://www.w3.org/1999/xlink" x="0px" y="0px"
	 viewBox="0 0 30 30" style="enable-background:new 0 0 30 30;" xml:space="preserve">
<style type="text/css">
	.st0{fill:#47C7E7;}
</style>
<g>
	<path class="st0" d="M27.5,11.2l-0.9-2.4l0,0c0,0-0.9-2.8-1.2-3.4c-0.1-0.3-0.3-0.6-0.4-0.8l-0.2-0.3l0,0c-0.2-0.3-0.3-0.7-1-1.2
		c-0.8-0.5-1.6-0.8-2.6-0.8H8.8c-1,0-1.8,0.3-2.6,0.8S5.4,4,5.2,4.3l0,0L4.9,4.6C4.8,4.9,4.6,5.1,4.5,5.4C4.3,6,3.4,8.8,3.4,8.8l0,0
		l-0.9,2.4C1.4,11.3,0,11.9,0,14.7v8.1h2.6v3.1c0,1.1,0.9,1.9,1.9,1.9s1.9-0.9,1.9-1.9v-3.1h17.1v3.1c0,1.1,0.9,1.9,1.9,1.9
		c1.1,0,1.9-0.9,1.9-1.9v-3.1H30v-8.1C30,11.9,28.6,11.3,27.5,11.2z M10.3,11.1H5.2c0.6-1.6,1.7-4.9,2-5.6c0.3-0.3,1-0.7,1.6-0.8
		c0.6,0,3.4,0,6.1,0c2.8,0,5.5,0,6.1,0c0.7,0.1,1.3,0.5,1.6,0.8c0.3,0.7,1.5,4,2,5.6C24.8,11.1,10.3,11.1,10.3,11.1z M27.6,20.4H2.4
		v-5.1c0-0.8,0.7-1.6,0.9-1.6s8.8,0,11.3,0h0.8c2.5,0,11.1,0,11.3,0s0.9,0.9,0.9,1.6C27.6,15.2,27.6,20.4,27.6,20.4z"/>
	<path class="st0" d="M7.5,14.4c-1.2,0-2.2,1-2.2,2.2s1,2.2,2.2,2.2s2.2-1,2.2-2.2C9.6,15.4,8.7,14.4,7.5,14.4z M22.6,14.4
		c-1.2,0-2.2,1-2.2,2.2s1,2.2,2.2,2.2s2.2-1,2.2-2.2C24.8,15.4,23.8,14.4,22.6,14.4z"/>
</g>
</svg>
