<?xml version="1.0" encoding="utf-8"?>
<!-- Generator: Adobe Illustrator 21.0.0, SVG Export Plug-In . SVG Version: 6.00 Build 0)  -->
<svg version="1.1" id="图层_1" xmlns="http://www.w3.org/2000/svg" xmlns:xlink="http://www.w3.org/1999/xlink" x="0px" y="0px"
	 viewBox="0 0 30 30" style="enable-background:new 0 0 30 30;" xml:space="preserve">
<style type="text/css">
	.st0{fill:#47C7E7;}
</style>
<g>
	<path class="st0" d="M30,4.5v2.3h-2.4V4.5c0-1-0.7-1.8-1.6-1.8H4c-0.9,0-1.6,0.8-1.6,1.8v21c0,1,0.7,1.8,1.6,1.8h22
		c0.9,0,1.6-0.8,1.6-1.8v-8.3H30v8.3c0,2.5-1.8,4.5-4,4.5H4c-2.2,0-4-2-4-4.5v-21C0,2,1.8,0,4,0h22C28.2,0,30,2,30,4.5z"/>
</g>
<g>
	<polygon class="st0" points="15.4,20.1 7.2,12.5 9.4,10.2 17.6,17.8 	"/>
</g>
<g>
	<polygon class="st0" points="13.2,18 27.7,4.8 30,6.9 15.4,20.1 	"/>
</g>
</svg>
