<?xml version="1.0" encoding="utf-8"?>
<!-- Generator: Adobe Illustrator 21.0.0, SVG Export Plug-In . SVG Version: 6.00 Build 0)  -->
<svg version="1.1" id="图层_1" xmlns="http://www.w3.org/2000/svg" xmlns:xlink="http://www.w3.org/1999/xlink" x="0px" y="0px"
	 viewBox="0 0 50 50" style="enable-background:new 0 0 50 50;" xml:space="preserve">
<style type="text/css">
	.st0{fill:#959599;}
</style>
<path class="st0" d="M31.1,42l4.2-4.2c0.8,0.3,1.5,0.4,2.3,0.4c3.8,0,7-3.1,7-7c0-1-0.2-1.9-0.6-2.8l-0.2-0.4c0,0,0,0,0,0
	c0,0,0-0.1-0.1-0.1c-0.1-0.1-0.4-0.1-0.5,0c0,0,0,0,0,0l-3.9,3.9L37,29.5l3.8-3.8c0,0,0,0,0,0c0.2-0.2,0.2-0.4,0-0.6
	c0,0-0.1-0.1-0.2-0.1c0,0,0,0,0,0l-0.3-0.1c-0.9-0.4-1.8-0.6-2.8-0.6c-3.8,0-7,3.1-7,7c0,0.8,0.1,1.6,0.4,2.3l-4.2,4.2
	c-0.6,0.6-0.9,1.3-0.9,2.1c0,0,0,0,0,0c0,0.8,0.3,1.5,0.9,2.1C28,43.2,29.9,43.2,31.1,42z"/>
<g>
	<g>
		<path class="st0" d="M25.9,3.1c5.2,0,9.5,4.2,9.5,9.5s-4.2,9.5-9.5,9.5s-9.5-4.2-9.5-9.5S20.6,3.1,25.9,3.1 M25.9,0.1
			c-6.9,0-12.5,5.6-12.5,12.5S19,25.1,25.9,25.1s12.5-5.6,12.5-12.5S32.7,0.1,25.9,0.1L25.9,0.1z"/>
	</g>
	<g>
		<path class="st0" d="M26,49.8c-4.7,0-9.2-0.7-12.5-1.9C8.2,46,7,43.1,7,41.1c0-10.5,8.5-19,19-19c0.8,0,1.5,0.7,1.5,1.5
			s-0.7,1.5-1.5,1.5c-8.8,0-16,7.2-16,16c0,3.2,7,5.7,16,5.7c9,0,16-2.5,16-5.7c0-0.8,0.7-1.5,1.5-1.5s1.5,0.7,1.5,1.5
			C45,47.1,35.4,49.8,26,49.8z"/>
	</g>
</g>
</svg>
