<?xml version="1.0" encoding="utf-8"?>
<!-- Generator: Adobe Illustrator 21.0.0, SVG Export Plug-In . SVG Version: 6.00 Build 0)  -->
<svg version="1.1" id="图层_1" xmlns="http://www.w3.org/2000/svg" xmlns:xlink="http://www.w3.org/1999/xlink" x="0px" y="0px"
	 viewBox="0 0 50 50" style="enable-background:new 0 0 50 50;" xml:space="preserve">
<style type="text/css">
	.st0{fill:#13B7F6;}
	.st1{fill:#FCFCFC;}
</style>
<g>
	<path class="st0" d="M25.9,0.1c-6.9,0-12.5,5.6-12.5,12.5S19,25.1,25.9,25.1s12.5-5.6,12.5-12.5S32.7,0.1,25.9,0.1L25.9,0.1z"/>
</g>
<g>
	<path class="st0" d="M43.5,39.6c0.8,0,1.5,0.7,1.5,1.5c0,6-9.6,8.7-19,8.7c-4.7,0-9.2-0.7-12.5-1.9C8.2,46,7,43.1,7,41.1
		c0-10.5,8.5-19,19-19c0.8,0,1.5,0.7,1.5,1.5"/>
</g>
<g>
	<path class="st0" d="M24.5,23.6c0-0.8,0.7-1.5,1.5-1.5c10.5,0,19,8.5,19,19c0,2-1.2,4.9-6.5,6.8c-3.3,1.2-7.8,1.9-12.5,1.9
		c-9.4,0-19-2.7-19-8.7c0-0.8,0.7-1.5,1.5-1.5"/>
</g>
<g>
	<path class="st1" d="M28.9,42.4c-0.7,0-1.4-0.3-1.9-0.8c-0.5-0.5-0.7-1.1-0.7-1.7s0.2-1.2,0.8-1.7l4.4-4.4l-0.1-0.3
		c-0.2-0.6-0.4-1.3-0.4-2.1c0-3.6,2.9-6.5,6.5-6.5c0.9,0,1.7,0.2,2.6,0.6l0.3,0.1l-4.1,4.1l3,3l4.1-4.1l0.1,0.2
		c0.4,0.8,0.5,1.7,0.5,2.6c0,3.6-2.9,6.5-6.5,6.5c-0.8,0-1.4-0.1-2.1-0.4l-0.3-0.1l-4.4,4.4C30.3,42.1,29.6,42.4,28.9,42.4z"/>
	<path class="st0" d="M37.5,25.3c0.7,0,1.3,0.1,2,0.3l-3.2,3.2l-0.7,0.7l0.7,0.7l2.3,2.3l0.7,0.7l0.7-0.7l3.3-3.3
		c0.2,0.6,0.3,1.3,0.3,2c0,3.3-2.7,6-6,6c-0.7,0-1.3-0.1-1.9-0.3L35,36.6l-0.5,0.5l-4.2,4.2c-0.4,0.4-0.9,0.6-1.5,0.6
		c-0.6,0-1.1-0.2-1.5-0.6c-0.4-0.4-0.6-0.9-0.6-1.4c0-0.5,0.2-1,0.6-1.4l4.2-4.2l0.5-0.5l-0.3-0.6c-0.2-0.5-0.3-1.1-0.3-1.9
		C31.5,28,34.2,25.3,37.5,25.3 M37.5,24.3c-3.8,0-7,3.1-7,7c0,0.8,0.1,1.6,0.4,2.3l-4.2,4.2c-0.6,0.6-0.9,1.3-0.9,2.1
		c0,0.8,0.3,1.5,0.9,2.1c0.6,0.6,1.5,0.9,2.2,0.9c0.8,0,1.6-0.3,2.2-0.9l4.2-4.2c0.8,0.3,1.5,0.4,2.3,0.4c3.8,0,7-3.1,7-7
		c0-1-0.2-1.9-0.6-2.8L43.8,28c0,0,0-0.1-0.1-0.1c0,0-0.2-0.1-0.2-0.1s-0.2,0-0.2,0.1l-3.9,3.9L37,29.5l3.8-3.8
		c0.2-0.2,0.2-0.4,0-0.6c0,0-0.1-0.1-0.2-0.1l-0.3-0.1C39.4,24.5,38.5,24.3,37.5,24.3L37.5,24.3z"/>
</g>
</svg>
