<?xml version="1.0" encoding="utf-8"?>
<!-- Generator: Adobe Illustrator 21.0.0, SVG Export Plug-In . SVG Version: 6.00 Build 0)  -->
<svg version="1.1" id="图层_1" xmlns="http://www.w3.org/2000/svg" xmlns:xlink="http://www.w3.org/1999/xlink" x="0px" y="0px"
	 viewBox="0 0 28 28" style="enable-background:new 0 0 28 28;" xml:space="preserve">
<style type="text/css">
	.st0{fill:#FB5849;}
</style>
<path class="st0" d="M14,0c7.7,0,14,6.3,14,14s-6.3,14-14,14S0,21.7,0,14S6.3,0,14,0z M14,18.8c-1.2,0-2.1,0.9-2.1,2.1
	c0,1.2,0.9,2.1,2.1,2.1s2.1-0.9,2.1-2.1C16.1,19.7,15.2,18.8,14,18.8z M13.9,17.1c1,0,1.8-0.8,1.8-1.8V6.8c0-1-0.8-1.8-1.8-1.8
	s-1.8,0.8-1.8,1.8v8.5C12.1,16.3,12.9,17.1,13.9,17.1z"/>
</svg>
