<?xml version="1.0" encoding="utf-8"?>
<!-- Generator: Adobe Illustrator 21.0.0, SVG Export Plug-In . SVG Version: 6.00 Build 0)  -->
<svg version="1.1" id="图层_1" xmlns="http://www.w3.org/2000/svg" xmlns:xlink="http://www.w3.org/1999/xlink" x="0px" y="0px"
	 viewBox="0 0 80 80" style="enable-background:new 0 0 80 80;" xml:space="preserve">
<style type="text/css">
	.st0{fill:#00C9FC;}
	.st1{fill:#FF5056;}
	.st2{fill:#5ED300;}
	.st3{fill:#FFAB00;}
	.st4{fill:#FFFFFF;}
</style>
<path class="st0" d="M80,28H0V12c0-4.4,3.6-8,8-8h64c4.4,0,8,3.6,8,8C80,12,80,28,80,28z"/>
<path class="st1" d="M0,28h80v24H0V28z"/>
<path class="st2" d="M72,76H8c-4.4,0-8-3.6-8-8V52h80v16C80,72.4,76.4,76,72,76z"/>
<path class="st3" d="M32,4h16v72H32V4z"/>
<path class="st4" d="M42,36c2.4,0,4,1.6,4,4c0,2.4-1.6,4-4,4h-4c-2.4,0-4-1.6-4-4s1.6-4,4-4H42 M42,32h-4c-4.4,0-8,3.6-8,8
	s3.6,8,8,8h4c4.4,0,8-3.6,8-8S46.4,32,42,32z"/>
</svg>
